<svg width="178" height="106" viewBox="0 0 178 106" fill="none" xmlns="http://www.w3.org/2000/svg">
<g clip-path="url(#clip0_2329_108)">
<path d="M16.3688 101.527C16.3905 101.264 16.4122 100.992 16.4122 100.693C16.4122 99.785 16.3543 98.8494 16.2941 97.9552C16.2338 97.0611 16.1831 96.2292 16.1831 95.4204C16.1873 95.2662 16.2002 95.1123 16.2217 94.9595C16.2502 94.7469 16.2663 94.5331 16.2699 94.3188C16.2668 94.1275 16.2499 93.9365 16.2193 93.7473C16.199 93.6276 16.1869 93.5068 16.1831 93.3855C16.1896 93.0965 16.2121 92.8081 16.2507 92.5214C16.2967 92.1889 16.3225 91.8542 16.3278 91.5189C16.3278 91.1018 16.3133 90.7193 16.2989 90.3322C16.2844 89.945 16.2699 89.5763 16.2699 89.1546V88.7214L16.2482 88.4494L16.188 88.3895C16.188 88.2858 16.2073 88.1775 16.2217 88.0669C16.2507 87.8644 16.2668 87.6605 16.2699 87.4562C16.2699 87.0967 16.2458 86.7649 16.2265 86.4469C16.2073 86.1289 16.1831 85.8201 16.1831 85.479V85.2048C16.1905 84.954 16.0955 84.7104 15.9181 84.5254C15.7408 84.3405 15.4952 84.2287 15.2332 84.2139C14.5508 84.2139 14.2519 84.9259 13.9867 85.5551C13.9408 85.6611 13.9071 85.7509 13.8974 85.7694C13.3236 86.6312 12.8221 87.53 12.3375 88.3987C12.0771 88.8596 11.8191 89.3205 11.5515 89.7814L11.4671 89.9243V90.1778C11.4047 90.2828 11.3337 90.3829 11.2549 90.4773C11.1439 90.6117 11.0455 90.7551 10.9608 90.906L10.7558 91.5212L10.6063 91.701L10.5533 91.7724C10.1931 92.4022 9.89678 93.0636 9.66842 93.7473C9.59126 93.9501 9.51652 94.1506 9.42731 94.3488C9.292 94.6606 9.12567 94.9592 8.93063 95.2406C8.81249 95.4273 8.68952 95.6093 8.60272 95.7822L8.52557 95.9227V95.9919C8.4243 96.2407 8.05541 96.9551 7.71786 97.5635C7.43817 96.8722 7.08374 95.9803 6.81129 95.289C6.37971 94.2013 6.0084 93.2634 5.89026 93.0007C5.81069 92.8256 5.71666 92.6573 5.62263 92.4868C5.50789 92.2934 5.40953 92.0915 5.32848 91.883C5.28508 91.7632 5.24168 91.5927 5.19587 91.4106C5.12531 91.0676 5.01114 90.734 4.85591 90.4174C4.47978 89.763 4.14705 89.0532 3.82638 88.3665C3.62144 87.9217 3.4165 87.4839 3.20191 87.0622C3.13052 86.9237 3.06772 86.7813 3.01385 86.6358C2.8471 86.148 2.55921 85.706 2.17479 85.3476C2.13762 85.2888 2.10382 85.228 2.07353 85.1656C1.982 84.9231 1.81097 84.7154 1.58591 84.5734C1.36086 84.4314 1.09382 84.3627 0.824588 84.3775C0.219408 84.3775 0 84.9882 0 85.5597C0.00754235 85.814 0.0555085 86.0657 0.142254 86.3063V87.3387L0.253163 87.4447C0.253163 87.4447 0.253163 87.4585 0.253163 87.4654C0.244628 87.5443 0.240603 87.6235 0.241108 87.7028C0.242395 87.8473 0.27183 87.9903 0.327906 88.1245V89.7376L0.376128 89.8505V91.9983L0.409883 92.0951C0.492778 92.3594 0.529437 92.635 0.518381 92.9108C0.518381 93.0975 0.518381 93.2887 0.506326 93.48C0.494271 93.6713 0.482215 93.9017 0.482215 94.1022C0.482215 95.5033 0.569014 96.9367 0.653402 98.3216C0.737789 99.7066 0.826999 101.122 0.826999 102.507C0.826999 102.691 0.826999 102.875 0.812533 103.062C0.798066 103.249 0.798066 103.461 0.798066 103.661C0.801654 103.802 0.846152 103.94 0.926606 104.058C1.00706 104.176 1.12031 104.271 1.25376 104.332L1.53344 104.594L1.96503 104.392C2.52922 104.122 2.57021 103.571 2.5895 103.308C2.59167 103.25 2.59812 103.193 2.60878 103.136L2.67871 102.954L2.62807 102.765C2.61147 102.7 2.5897 102.637 2.56297 102.576V101.857C2.56297 100.87 2.50993 99.8864 2.4593 98.9369L2.41108 98.1119V96.8053L2.37009 96.7662C2.39379 96.6764 2.40753 96.5845 2.41108 96.4919V96.2177C2.41108 95.7038 2.37491 95.1922 2.33874 94.6968C2.30258 94.2013 2.26641 93.7128 2.26641 93.2219C2.26241 93.0373 2.27046 92.8526 2.29052 92.6689L2.3291 92.3624L2.20855 92.2471V91.5097L2.12657 91.3761C2.12657 91.2608 2.12657 91.1456 2.12657 91.0281C2.12657 90.8276 2.14345 90.6248 2.14345 90.422C2.14345 89.8759 2.12657 89.3297 2.09764 88.7928C2.17961 88.9702 2.25918 89.1477 2.33874 89.3251C2.68835 90.0971 3.0476 90.8944 3.45507 91.6595C3.45507 91.6895 3.45507 91.7171 3.45507 91.7471C3.46185 91.9236 3.49849 92.0979 3.56357 92.2633C3.80468 92.7841 4.03373 93.298 4.27243 93.8073C4.89492 95.0849 5.4478 96.3925 5.92884 97.7248L5.94571 97.7709C5.99153 97.8861 6.22299 98.6304 6.3773 99.1213C6.76307 100.354 6.76307 100.354 6.89809 100.481L6.95837 100.539V101.433L8.01924 100.674C8.40742 100.396 8.68229 99.5937 8.7715 99.1766C8.91616 98.9162 9.04877 98.6466 9.17415 98.3862C9.29952 98.1258 9.41525 97.9253 9.53822 97.6764C9.73111 97.3054 9.92881 96.9367 10.1265 96.5703C10.8143 95.3509 11.4239 94.0927 11.9517 92.8025C12.0739 92.5194 12.225 92.2485 12.4026 91.9937C12.5814 91.7303 12.7425 91.4563 12.8848 91.1733L12.9427 91.0212V90.9405C13.3857 90.0221 13.8807 89.1275 14.4255 88.2605V91.2977L14.5123 91.406V91.837C14.5275 92.0687 14.5088 92.3014 14.4568 92.5283L14.4231 92.6251V96.1808L14.5123 96.2914L14.5388 100.172C14.5388 100.283 14.5388 100.633 14.5533 100.967C14.5533 101.262 14.5653 101.557 14.5677 101.693V101.758C14.5432 101.868 14.5279 101.981 14.5219 102.094V102.424C14.5255 102.517 14.5401 102.61 14.5653 102.7L14.5798 104.083L14.6497 104.219C14.7366 104.362 14.8464 104.491 14.9752 104.601L15.2163 104.832L15.5514 104.781C15.7074 104.756 15.8602 104.715 16.0071 104.659L16.4218 104.5V102.656L16.3375 102.518V102.255C16.3278 102.011 16.3471 101.776 16.3688 101.527Z" fill="#F4F4F4"/>
<path d="M23.9034 84.6567C23.7539 84.6567 23.5345 84.6567 23.4597 84.6359C23.3579 84.573 23.2425 84.5328 23.1222 84.5184C22.64 84.4539 22.1577 84.4354 21.6755 84.417C21.3066 84.4009 20.9522 84.3871 20.6267 84.3548L20.3711 84.3202C19.9724 84.2574 19.5696 84.2212 19.1656 84.2119C18.3989 84.2119 17.9866 84.8917 17.9866 85.5324V86.0255L18.1385 86.0624C18.1722 86.2421 18.2084 86.4657 18.2204 86.5624C18.2204 86.6201 18.2397 86.6708 18.2446 86.7122V87.7769L18.3048 87.9497C18.3048 87.9866 18.3048 88.0304 18.3048 88.0788C18.3048 88.3369 18.3265 88.754 18.3265 88.9383C18.3265 90.0905 18.3265 91.0861 18.2421 92.2175V92.2613C18.2421 92.3028 18.259 92.4342 18.2783 92.5632C18.2783 92.577 18.2783 92.5932 18.2783 92.6047C18.2513 92.6789 18.2367 92.7566 18.2349 92.8351C18.2421 92.9348 18.255 93.0341 18.2735 93.1324C18.2735 93.1762 18.288 93.2177 18.2928 93.2499V93.5772C18.2928 94.2501 18.3217 94.8999 18.3506 95.529C18.3796 96.1581 18.4085 96.778 18.4085 97.4233C18.4151 97.7407 18.3827 98.0578 18.3121 98.3681L18.2928 101.193L18.2349 101.359V101.461C18.2349 101.592 18.2349 101.744 18.2132 101.922C18.1963 102.173 18.177 102.461 18.177 102.786C18.177 104.263 18.8039 104.574 19.3295 104.574C19.5035 104.573 19.6759 104.542 19.8383 104.482C19.86 104.482 19.8793 104.466 19.8744 104.463C20.2686 104.468 20.6622 104.493 21.0535 104.539L21.1234 104.629H21.7141C22.0541 104.629 22.4013 104.648 22.7677 104.668C23.1342 104.689 23.52 104.71 23.8985 104.71H24.8051L25.0004 104.526C25.1724 104.309 25.2701 104.046 25.2801 103.774C25.2801 102.972 24.482 102.945 22.3458 102.873C21.6803 102.85 20.6436 102.816 20.1373 102.737V99.5641C20.3157 98.852 20.3133 97.8957 20.3108 97.1214V96.8495C20.3053 96.7514 20.2941 96.6537 20.2771 96.5568C20.2602 96.4831 20.2433 96.3955 20.2337 96.3448V95.9692H20.4338C21.0052 95.9801 21.5753 96.0247 22.1409 96.1028C22.7465 96.1854 23.3568 96.2323 23.9685 96.2434C24.0878 96.2516 24.2076 96.2352 24.3198 96.1953C24.4319 96.1553 24.5338 96.0928 24.6184 96.0119C24.703 95.9311 24.7684 95.8337 24.8102 95.7265C24.852 95.6194 24.8692 95.5048 24.8606 95.3908C24.8606 94.3561 23.3536 94.1533 20.7617 94.1533C20.5905 94.1533 20.4266 94.1533 20.2795 94.1671V94.1003C20.2866 93.7461 20.2486 93.3925 20.1662 93.0471V90.2956L20.2458 90.1366V89.9062C20.2458 89.7334 20.2699 89.42 20.2699 89.2725C20.2699 88.4613 20.1927 87.6594 20.1156 86.8805L20.0673 86.3573C20.0575 86.2667 20.0422 86.1767 20.0215 86.0877H21.1909C22.1915 86.4657 24.781 86.5486 24.8075 86.5486C24.9331 86.5552 25.0588 86.5373 25.177 86.4961C25.2952 86.4549 25.4034 86.3913 25.4951 86.309C25.5868 86.2267 25.6601 86.1275 25.7106 86.0174C25.7611 85.9073 25.7877 85.7885 25.7888 85.6683C25.7816 84.7028 24.5592 84.6728 23.9034 84.6567Z" fill="#F4F4F4"/>
<path d="M37.8853 91.6943L37.813 91.5791C37.5181 91.0746 37.2758 90.5435 37.0897 89.9936C36.8548 89.275 36.531 88.5857 36.1253 87.9404C35.3706 86.7881 34.4785 86.1913 33.6153 85.606C33.4393 85.4861 33.2633 85.3755 33.0584 85.2234C32.9258 85.1382 32.7353 85.0736 31.9806 84.8317C31.6985 84.7395 31.2573 84.6012 31.0331 84.5137L30.9463 84.35H29.8974C29.7935 84.297 29.6777 84.2686 29.5599 84.2671H29.3574C27.7468 84.2671 27.7468 85.2764 27.7444 85.8203C27.7444 85.9562 27.7444 86.0968 27.7323 86.242L27.66 86.3111V87.9242C27.66 87.9657 27.6527 88.0118 27.6383 88.0625C27.6383 88.1247 27.6142 88.2469 27.5973 88.3275L27.4864 88.4335L27.5732 97.8011C27.4464 98.2712 27.3888 98.756 27.402 99.2413C27.4024 99.3256 27.4154 99.4094 27.4406 99.4902L27.402 99.5271V100.064C27.402 100.389 27.3827 100.698 27.361 101.027C27.3393 101.357 27.3152 101.707 27.3152 102.069C27.3152 102.38 27.3393 102.691 27.361 102.991C27.3827 103.29 27.402 103.56 27.402 103.825V104.436L27.7685 104.613C27.9522 104.727 28.1625 104.797 28.3809 104.816C28.5986 104.809 28.813 104.763 29.0126 104.68H29.2151H29.3019C29.6725 104.617 30.0376 104.528 30.3941 104.413C30.5774 104.357 30.7413 104.309 30.8426 104.288C33.1741 103.827 36.0143 102.928 37.3525 100.029C37.8636 99.3174 38.2976 97.3932 38.2976 96.5267C38.2633 94.9555 38.1272 93.3877 37.8902 91.8326L37.8853 91.6943ZM31.103 102.401L30.7027 102.495C30.5195 102.537 30.3363 102.587 30.1482 102.64C29.846 102.734 29.5364 102.803 29.2223 102.848V102.26C29.2223 101.08 29.2874 99.8751 29.3501 98.7067C29.4128 97.5384 29.4803 96.3032 29.4803 95.091C29.4767 94.9362 29.4589 94.782 29.4273 94.6302C29.4094 94.5489 29.3981 94.4665 29.3935 94.3836V94.3674L29.4803 94.2292V94.054C29.5111 93.5543 29.4524 93.0532 29.3067 92.5723V91.2242C29.3067 90.3347 29.367 89.406 29.4249 88.5073C29.4779 87.6731 29.5286 86.8826 29.5358 86.1152C29.7287 86.1014 29.9095 86.0922 29.9674 86.0899C31.4454 86.0899 34.1554 87.7514 35.0017 89.4797C35.0499 90.0005 35.3344 90.5859 35.6117 91.1528C35.7298 91.3832 35.8528 91.6252 35.9227 91.8187C36.0553 92.1828 36.0819 92.941 36.1011 93.4318C36.1011 93.554 36.1011 93.6623 36.1156 93.7706L36.1301 93.9342L36.2072 94.0656C36.2648 94.1793 36.3015 94.3017 36.3157 94.4274V95.7732C36.3157 97.5015 36.1397 98.2389 35.3778 99.7253C34.411 101.626 33.1693 101.924 31.103 102.401Z" fill="#F4F4F4"/>
<path d="M42.3602 102.944C42.1802 102.945 42.0005 102.958 41.8225 102.984L41.9141 101.158L41.7911 101.041C41.7911 101.013 41.7911 100.969 41.7911 100.914C41.789 100.879 41.789 100.843 41.7911 100.808C41.8025 100.716 41.809 100.623 41.8104 100.529V100.098V100.066C41.8422 99.8276 41.8599 99.5876 41.8635 99.3471C41.8704 99.1309 41.8428 98.9148 41.7815 98.7065L41.8056 97.7732C41.8321 96.9574 41.8345 96.1278 41.837 95.3259C41.837 94.3304 41.837 93.3003 41.8924 92.2333C41.8896 91.91 41.8557 91.5875 41.7911 91.2701C41.7227 90.9454 41.6887 90.615 41.6899 90.2838C41.7019 89.9966 41.7317 89.7104 41.7791 89.4265L41.8297 89.0325L41.7236 88.8781L41.7477 88.6914C41.7453 88.5323 41.7083 88.3753 41.6392 88.2305L41.7019 86.8248L41.6079 86.7349C41.6079 86.7096 41.6079 86.675 41.6079 86.6382C41.6079 86.4077 41.6079 86.0966 41.6079 85.8155L41.6609 85.797L42.5772 85.8408L42.8038 85.078V84.9905C42.8093 84.877 42.79 84.7637 42.7471 84.6578C42.7042 84.5518 42.6387 84.4556 42.5548 84.3752C42.4709 84.2947 42.3704 84.2319 42.2597 84.1906C42.1489 84.1494 42.0304 84.1306 41.9117 84.1355C41.615 84.14 41.3188 84.16 41.0244 84.1954L40.3349 84.2784L40.2408 84.2991H40.1781C40.0359 84.2972 39.8941 84.2848 39.7538 84.2623C39.5504 84.2257 39.3432 84.2125 39.1366 84.2231L39.0498 84.1885H38.922C38.8025 84.1891 38.6844 84.2125 38.5746 84.2573C38.4647 84.302 38.3653 84.3674 38.2822 84.4494C38.1991 84.5314 38.134 84.6284 38.0907 84.7348C38.0473 84.8411 38.0267 84.9547 38.0299 85.0688V85.479L38.852 85.8339L39.7056 85.8731L39.8092 86.7626L39.7827 87.7305C39.7827 88.113 39.7972 88.4679 39.8117 88.8182C39.8261 89.1684 39.8406 89.4726 39.8406 89.816V90.5304L39.8599 90.6825C39.915 90.875 39.9474 91.0729 39.9563 91.2724V91.6664C39.885 92.0713 39.8583 92.4822 39.8768 92.8924C39.8768 94.0147 39.937 94.736 40.072 95.1761L39.8816 98.4V98.4599C39.9913 99.1672 40.0469 99.8812 40.0479 100.596C40.0479 101.009 40.0142 101.47 39.978 101.958C39.9515 102.322 39.925 102.698 39.9129 103.06C39.7795 103.04 39.6437 103.04 39.5103 103.06L39.4018 103.02H39.274C39.1545 103.021 39.0364 103.044 38.9266 103.089C38.8167 103.134 38.7173 103.199 38.6342 103.281C38.5511 103.363 38.486 103.46 38.4427 103.567C38.3993 103.673 38.3787 103.787 38.3819 103.901V104.309L39.1968 104.663L40.5928 104.746C40.714 104.786 40.8409 104.807 40.969 104.809H41.0775L41.2607 104.751C41.5069 104.742 41.7505 104.699 41.984 104.624L42.9485 104.67L43.1269 103.901L43.1413 103.762C43.1485 103.659 43.1338 103.556 43.098 103.458C43.0623 103.36 43.0062 103.271 42.9333 103.194C42.8603 103.118 42.7719 103.056 42.6734 103.013C42.5749 102.97 42.4684 102.947 42.3602 102.944Z" fill="#F4F4F4"/>
<path d="M53.6514 101.827L53.4103 99.9837C53.2897 99.3246 53.1257 98.6356 52.9714 97.9719C52.7882 97.1953 52.6001 96.3933 52.4627 95.5891C52.3676 95.126 52.246 94.6683 52.0986 94.2179C51.9488 93.7769 51.8312 93.3265 51.7466 92.8698L51.6719 92.3099C50.7388 85.4334 50.1191 84.272 49.08 84.272C48.1975 84.272 47.8889 85.1477 46.5435 91.4895C46.2566 92.8445 45.9841 94.1258 45.7623 94.9968C45.6514 95.4255 45.4995 95.838 45.338 96.2735C45.125 96.8121 44.9487 97.3632 44.8099 97.9235C44.5182 99.1748 44.1831 100.631 43.9395 102.113C43.9002 102.278 43.8495 102.441 43.7876 102.599C43.6483 102.932 43.5614 103.282 43.5297 103.639C43.5297 104.06 43.8142 104.685 44.4242 104.685C45.2922 104.685 45.4585 103.715 45.7913 101.783C45.9383 100.933 46.2011 99.3914 46.476 98.9697H49.0076C49.1298 99.0221 49.2619 99.0504 49.3958 99.0527C49.4681 99.0521 49.5401 99.0436 49.6104 99.0273C49.9421 99.0543 50.2705 99.1098 50.5917 99.1932C50.8593 99.2508 51.1366 99.3131 51.3994 99.3499H51.4428C51.5331 99.7767 51.5951 100.208 51.6285 100.643C51.7008 101.348 51.749 101.77 51.8985 102.053C51.9467 102.32 51.9733 102.638 51.9974 102.949C52.0697 103.823 52.1517 104.816 53.0438 104.816C53.526 104.816 53.9961 104.5 53.9961 103.798C53.9791 103.37 53.9112 102.945 53.7936 102.532C53.7382 102.281 53.6803 102.044 53.6514 101.827ZM47.1125 96.5823C47.3343 96.0961 47.5634 95.5891 47.5634 95.119V95.0015L47.7056 94.9346V94.5406C47.7017 94.2377 47.7659 93.9375 47.8937 93.6603C47.9492 93.5128 48.0119 93.3446 48.077 93.1395C48.1927 92.7629 48.2734 92.3774 48.3181 91.9872C48.3422 91.8282 48.3639 91.6669 48.3928 91.5056C48.5093 91.3476 48.5808 91.1634 48.6002 90.971V90.5308C48.6002 90.4479 48.6363 90.1391 48.6556 90.0354V90.0193C48.6556 89.9847 48.6894 89.9155 48.7183 89.8234C48.8805 89.3705 49.0141 88.9088 49.1185 88.4407C49.3813 89.6851 49.7309 91.5079 50.1601 93.8976C50.2252 94.2548 50.2734 94.5175 50.2951 94.642C50.3868 95.1466 50.5363 95.6813 50.693 96.1975C50.8256 96.6583 50.9606 97.1192 51.0257 97.4902C50.3348 97.4481 49.6491 97.3487 48.9763 97.193L48.8871 97.1699H46.8545C46.9269 96.9879 47.0161 96.7874 47.1125 96.5823Z" fill="#F4F4F4"/>
<path d="M71.5535 93.4919C71.4898 93.3989 71.4326 93.3019 71.3823 93.2016C71.2753 92.9801 71.1357 92.7745 70.9676 92.5909C70.8532 92.4612 70.7191 92.3486 70.5698 92.2568C70.5363 92.2371 70.5041 92.2156 70.4733 92.1922C70.1304 91.7194 69.7618 91.264 69.3691 90.828C68.7133 90.0814 68.096 89.3739 67.7633 88.4636L67.744 88.4153C67.7175 88.3646 67.691 88.3093 67.6644 88.2562C67.589 88.1299 67.5376 87.9918 67.5125 87.8484C67.5125 86.9911 68.5107 85.9564 69.7524 85.9564C70.7868 85.9564 71.2473 86.2283 71.5776 87.0349L71.6017 87.0879C71.6254 87.1478 71.644 87.2095 71.6572 87.2722C71.6951 87.4306 71.7492 87.5849 71.8187 87.7331V90.5653C71.8183 90.6619 71.8384 90.7575 71.8777 90.8465C71.9171 90.9354 71.9749 91.0158 72.0477 91.0828C72.1205 91.1498 72.2068 91.202 72.3013 91.2362C72.3958 91.2705 72.4965 91.286 72.5975 91.282C73.2654 91.282 73.6053 90.7543 73.6053 89.715V89.5053L73.8079 89.4361L73.6728 88.8761C73.6535 88.8024 73.6101 88.489 73.6053 88.4153V87.8368V87.7608C73.3305 85.5877 71.8115 84.2373 69.6415 84.2373C67.879 84.2373 65.9309 85.802 65.7091 87.3967V87.4796C65.7091 89.609 67.1075 91.07 68.3395 92.3582C68.8831 92.8925 69.3784 93.4699 69.8199 94.0842C69.978 94.3368 70.1693 94.5692 70.389 94.7755C70.5049 94.8838 70.6113 95.0009 70.7072 95.1258C71.5246 96.278 71.785 97.2297 72.1539 98.541C72.2069 98.7322 72.2624 98.9327 72.3202 99.1332C72.4647 99.6266 72.5457 100.135 72.5613 100.647C72.5613 101.599 72.0791 102.309 71.0062 102.952C70.3163 103.073 69.6144 103.122 68.9134 103.097C67.9875 103.097 67.3365 101.371 67.3365 100.435C67.3474 99.9294 67.3893 99.4246 67.4619 98.9235C67.5387 98.3887 67.583 97.8501 67.5945 97.3104C67.5945 96.4163 66.9339 96.3471 66.7289 96.3471C66.5136 96.3303 66.2996 96.3923 66.1303 96.5207C65.9611 96.6491 65.8493 96.8342 65.8176 97.0385V98.4626C65.8036 98.7235 65.7649 98.9827 65.7018 99.2369C65.6387 99.4965 65.6008 99.7611 65.5885 100.027C65.5885 100.829 65.75 103.516 67.8308 104.473L67.908 104.503C67.9683 104.523 68.0271 104.548 68.084 104.576C68.3238 104.705 68.5928 104.775 68.8676 104.781C72.5686 104.781 73.6897 103.438 74.2274 101.396C74.2377 101.364 74.2498 101.333 74.2636 101.302C74.3378 101.142 74.3796 100.971 74.3865 100.797C74.3865 99.5641 73.803 96.7389 73.0869 95.5844C72.6173 94.8599 72.1054 94.1613 71.5535 93.4919V93.4919Z" fill="#F4F4F4"/>
<path d="M83.9707 101.288C83.9871 101.207 83.996 101.124 83.9972 101.041C83.9972 100.884 83.9678 100.728 83.9104 100.58V99.859C83.9104 99.1861 83.8887 98.5156 83.8694 97.868C83.8501 97.2205 83.826 96.5084 83.826 95.794L83.7971 88.4083C83.7971 88.2977 83.7971 88.1778 83.8091 88.0626C83.8212 87.9474 83.826 87.763 83.826 87.6017C83.826 86.7376 83.732 86.2997 83.6235 86.0485V85.212C83.6124 85.0311 83.5569 84.8552 83.4614 84.6986C83.3659 84.5421 83.2331 84.4093 83.0737 84.311L82.7265 84.1128L82.3842 84.3156C81.6946 84.7212 81.6946 85.2212 81.6946 85.6982V86.7076L81.7862 86.7352C81.7862 86.9173 81.8103 87.1961 81.832 87.5533C81.8489 87.8437 81.8658 88.1064 81.8658 88.1709V89.9569C81.8777 90.1084 81.9068 90.2583 81.9526 90.4039C81.9526 91.0952 81.9381 91.9802 81.9237 92.8582C81.9237 93.5702 81.902 94.2823 81.8971 94.8976C81.0484 94.8976 80.2094 94.8699 79.351 94.8169L78.3625 94.7616C78.2745 94.7628 78.1871 94.7744 78.1021 94.7962C78.1318 94.7944 78.1616 94.7944 78.1913 94.7962L78.0418 94.8123L77.8779 94.7132H76.9134C76.8966 94.4344 76.8652 94.1648 76.8339 93.8998C76.7842 93.5506 76.756 93.1989 76.7495 92.8466V92.7867C76.764 92.7498 76.7808 92.7153 76.7808 92.713L76.8339 92.5931V92.4641C76.828 92.3293 76.7995 92.1962 76.7495 92.07V90.8694C76.742 90.7009 76.7227 90.5331 76.6916 90.3671V90.0744C76.6916 89.9707 76.6916 89.8555 76.7037 89.731C76.7037 89.5605 76.7206 89.3738 76.7206 89.1664C76.7206 84.6059 76.1347 84.6059 75.5681 84.6059C75.1437 84.6059 74.647 84.9147 74.647 85.7881V85.9563C74.6366 86.2402 74.6757 86.5236 74.7628 86.7952V88.5811L74.8761 88.6917V88.7032C74.8723 88.847 74.8521 88.99 74.8158 89.1296C74.7642 89.3412 74.7359 89.5575 74.7314 89.7748C74.7309 89.9333 74.7645 90.0902 74.8303 90.2357C74.8266 90.2963 74.8266 90.3571 74.8303 90.4177V90.7473C74.8303 92.5563 74.9436 94.1786 75.0545 95.7479C75.1461 97.0661 75.2329 98.3128 75.2329 99.4811C75.2329 99.7438 75.2185 99.9789 75.2064 100.214C75.1943 100.449 75.1751 100.732 75.1751 101.02C75.1751 101.371 75.1919 101.684 75.2064 101.988C75.2209 102.253 75.2329 102.509 75.2329 102.776V103.507L75.8453 104.092L76.154 104.067C76.5301 104.037 77.1642 103.79 77.1642 102.475C77.1642 101.719 77.1328 101.044 77.1039 100.401C77.075 99.7576 77.0485 99.1746 77.0485 98.5294V98.3358C77.0485 97.9141 77.0171 97.55 76.9858 97.1951C76.9689 96.9854 76.9496 96.7849 76.9424 96.5821H77.292L77.4656 96.6628H78.1889C78.4131 96.6628 78.6711 96.6628 78.8953 96.6467C79.0738 96.6467 79.2401 96.6351 79.3655 96.6351C79.7796 96.6126 80.1946 96.6578 80.5927 96.7688L80.6964 96.801H81.9237C81.9237 96.9163 81.9237 97.0315 81.9237 97.1283C81.9237 97.8196 81.9598 98.5109 81.996 99.1654C82.0322 99.8199 82.0683 100.516 82.0683 101.221V101.468C82.0713 101.614 82.1007 101.759 82.1551 101.896V103.279C82.1001 103.383 82.0705 103.498 82.0683 103.615L82.0804 103.74C82.1069 103.99 82.211 104.227 82.3794 104.42C82.5478 104.614 82.7728 104.755 83.0255 104.825L83.6741 105.016L84.084 103.62V101.511L83.9683 101.401L83.9707 101.288Z" fill="#F4F4F4"/>
<path d="M96.3563 92.7013C96.3571 92.6373 96.3627 92.5734 96.3732 92.5101C96.381 92.4412 96.3851 92.372 96.3853 92.3027C96.3732 92.1206 96.3611 91.8902 96.3491 91.6298C96.2454 89.3369 96.0646 87.0209 95.1194 86.0115L94.982 85.8664C94.1357 84.9722 93.4654 84.2671 91.756 84.2671C87.8259 84.2671 85.6632 87.9542 85.6632 94.6232C85.6632 94.8952 85.6825 95.1556 85.7042 95.4298C85.7259 95.704 85.7476 95.9921 85.7476 96.2986C85.7571 96.9234 85.8577 97.5439 86.0466 98.1421C86.1301 98.4206 86.1954 98.7039 86.2419 98.9902C86.5143 101.177 87.6885 103.055 89.3763 104.014C90.0128 104.389 90.7313 104.816 91.6547 104.85L91.8235 104.869L91.9923 104.772C92.0316 104.769 92.0711 104.769 92.1104 104.772H92.313C96.2816 104.772 96.4817 95.6648 96.4817 93.8397V93.024L96.3828 92.8972C96.3667 92.833 96.3578 92.7673 96.3563 92.7013ZM88.882 100.997C88.6801 100.74 88.5109 100.461 88.3781 100.165V100.154L88.354 100.112C88.2623 99.8958 87.9127 98.4993 87.6306 97.2849C87.6114 97.1835 87.5631 96.6719 87.5607 96.5935C87.5583 96.5152 87.5872 96.423 87.6041 96.3308C87.6245 96.2295 87.639 96.1272 87.6475 96.0243C87.6389 95.733 87.6083 95.4427 87.5559 95.1556C87.5108 94.9165 87.4834 94.6747 87.4739 94.432C87.4739 94.3767 87.4739 94.2545 87.4908 94.1531C87.4908 94.1001 87.4908 94.0494 87.4908 94.0103L87.5414 93.7476V93.6346C87.5414 92.3603 87.7295 86.0023 91.4184 86.0023H91.6981C91.8903 86.0871 92.0906 86.1543 92.2961 86.2028C92.3973 86.2282 92.4986 86.2535 92.5541 86.2743C94.3985 87.0716 94.4371 88.7331 94.4829 90.6527V91.0099C94.495 91.4362 94.5239 91.8625 94.5504 92.2911C94.589 92.8465 94.6252 93.4203 94.6252 93.9849C94.6011 95.7376 94.422 97.4852 94.0899 99.2091L94.0489 99.4395C93.7186 101.345 93.2967 103.055 91.8115 103.055C91.3561 103.028 90.9114 102.912 90.505 102.713C90.0986 102.515 89.739 102.239 89.4486 101.903L89.3377 101.753C89.2064 101.493 89.0557 101.242 88.8868 101.002L88.882 100.997Z" fill="#F4F4F4"/>
<path d="M110.186 84.5414C109.704 84.5414 109.15 84.7903 109.15 85.9725V86.1868C109.11 86.9143 108.969 87.6336 108.73 88.3253C108.643 88.618 108.556 88.9153 108.489 89.2241L107.356 95.9069C107.322 96.079 107.276 96.2485 107.216 96.4139C107.141 96.6197 107.083 96.8308 107.042 97.0453C106.946 97.5984 106.859 98.1561 106.775 98.7207C106.676 99.3636 106.574 100.02 106.456 100.675C106.374 100.472 106.302 100.285 106.249 100.147C106.075 99.7047 105.991 99.488 105.96 99.4258C105.841 99.0681 105.76 98.6998 105.719 98.3266C105.663 97.7836 105.526 97.2512 105.311 96.7458L105.229 96.5798V96.437C105.226 96.281 105.171 96.13 105.072 96.006L104.904 95.0658L104.889 94.999C104.841 94.8082 104.803 94.6151 104.776 94.4206C104.648 93.6417 104.489 92.6715 103.619 92.6715C103.507 92.6653 103.394 92.6804 103.289 92.716C103.183 92.7515 103.086 92.8068 103.002 92.8787C102.919 92.9505 102.852 93.0374 102.804 93.1344C102.756 93.2313 102.729 93.3364 102.724 93.4435C102.724 93.4596 102.724 93.4758 102.724 93.4919C102.468 94.2178 102.283 94.9506 102.104 95.6627C101.977 96.165 101.863 96.6398 101.716 97.1076C101.569 97.5754 101.355 98.405 101.138 99.2599C101.068 99.5387 100.988 99.8498 100.896 100.168C100.865 99.9581 100.839 99.7784 100.817 99.6494C100.773 99.3544 100.74 99.1378 100.73 99.0963C100.663 98.7077 100.574 98.3231 100.462 97.9441C100.388 97.6629 100.315 97.3956 100.277 97.1928V97.0799C100.256 96.152 100.094 95.232 99.7946 94.3491C99.7078 94.0496 99.621 93.7546 99.5534 93.455C99.4088 92.8259 99.2834 92.1714 99.1629 91.54C99.0953 91.1828 99.0254 90.828 98.9555 90.4777C98.8976 90.1965 98.8253 89.9177 98.7506 89.6435C98.6401 89.2657 98.5595 88.8806 98.5095 88.4912V88.1709L98.4588 88.0534C98.2673 87.5784 98.1244 87.0868 98.0321 86.5855C97.9167 85.8991 97.6915 85.2337 97.3642 84.6129L97.1737 84.2856H96.7566C96.489 84.2856 95.8645 84.3732 95.8645 85.1936C95.8749 85.3745 95.9181 85.5523 95.9923 85.719C96.0068 85.7536 96.0188 85.7881 96.0212 85.7881L96.4215 87.6709C96.4665 87.879 96.536 88.0815 96.6288 88.2746C96.6734 88.3678 96.7104 88.4641 96.7397 88.5627L96.7542 88.618C96.9215 89.2162 97.0415 89.8255 97.1134 90.4408L97.1641 90.7773C97.2436 91.3326 97.3762 91.9041 97.504 92.4572C97.6077 92.8973 97.7138 93.3536 97.7885 93.7892V93.9412L97.8175 94.0334C98.2244 95.4374 98.5297 96.8664 98.7313 98.3105C98.8591 99.0871 98.9893 99.889 99.1532 100.677C99.2159 100.967 99.2834 101.262 99.3533 101.557C99.498 102.18 99.6475 102.825 99.7439 103.452V103.929L99.7584 104.067C99.7874 104.286 99.9041 104.486 100.084 104.624C100.264 104.762 100.493 104.829 100.723 104.809C101.482 104.809 101.745 104.187 102.594 100.371C102.695 99.9097 102.784 99.5249 102.835 99.3636C102.9 99.1332 103.006 98.8428 103.119 98.5432C103.301 98.104 103.442 97.6506 103.541 97.1882C103.541 97.1882 103.541 97.1652 103.541 97.1513C103.72 97.9348 103.836 98.3612 103.985 98.61C104.132 99.253 104.576 100.645 104.949 101.742C105.948 104.609 106.177 104.754 106.693 104.754C107.416 104.754 107.573 104.005 107.782 102.965C107.833 102.717 107.905 102.35 107.956 102.207L108.074 102.081V101.166C108.21 100.784 108.283 100.384 108.289 99.9812C108.297 99.7676 108.323 99.5549 108.366 99.3452C108.649 98.2844 108.857 97.2066 108.988 96.1189C109.043 95.7456 109.099 95.3723 109.157 95.0128C109.218 94.7012 109.298 94.3934 109.398 94.091C109.496 93.7882 109.576 93.4805 109.639 93.1693C109.7 92.7878 109.736 92.4029 109.745 92.017L109.76 91.7198C109.792 91.568 109.836 91.4187 109.89 91.2727C109.957 91.0991 110.007 90.9202 110.042 90.7381C110.14 90.1366 110.283 89.5098 110.401 88.8945C110.673 87.7421 110.862 86.5734 110.967 85.3964V85.3296C110.969 85.1272 110.888 84.9321 110.743 84.7852C110.597 84.6383 110.398 84.551 110.186 84.5414V84.5414Z" fill="#F4F4F4"/>
<path d="M133.639 97.2272C133.617 95.9091 133.603 94.8697 132.674 94.8697C132.516 94.8631 132.357 94.8907 132.211 94.9504H130.68C130.49 94.8888 130.29 94.8615 130.09 94.8697H129.234H129.123C128.9 94.8856 128.692 94.9818 128.541 95.1389C128.39 95.296 128.308 95.5022 128.31 95.7155C128.31 95.9459 128.419 96.6787 129.808 96.6787H129.945L130.07 96.628L130.109 96.6119L130.215 96.628C130.346 96.6551 130.479 96.6721 130.613 96.6787H131.734C131.734 97.1212 131.782 97.5636 131.821 97.9946C131.864 98.4808 131.905 98.9417 131.905 99.3957V100.188C131.791 100.488 131.742 100.808 131.761 101.126V101.587C131.761 102.613 131.348 102.958 130.126 102.958C127.736 102.958 126.239 102.016 125.272 99.9026C125.098 99.4627 124.986 99.0023 124.94 98.5338C124.903 98.3034 124.87 98.0867 124.829 97.8793C124.8 97.7257 124.771 97.5759 124.742 97.43C124.648 97.0357 124.593 96.6336 124.58 96.2294C124.58 96.1971 124.58 96.1579 124.58 96.1211C124.591 96.0392 124.598 95.9569 124.6 95.8745V95.7247L124.53 95.5887L124.513 92.8741C124.583 92.6621 124.65 92.3671 124.735 91.9823C125.181 90.0327 126.099 85.9562 129.142 85.9562C129.865 85.9562 130.808 86.1613 131.264 86.5945C131.317 86.7146 131.357 86.8397 131.382 86.9678C131.49 87.3872 131.712 88.2629 132.677 88.2629H133.333V87.6292C133.333 85.9423 132.641 85.3248 131.286 84.7486L130.984 84.6035C130.519 84.3341 129.993 84.1759 129.451 84.1426C126.261 84.1426 123.886 86.8526 122.941 91.5698C122.9 91.7518 122.849 91.9385 122.801 92.1275C122.637 92.6516 122.543 93.1937 122.524 93.7406C122.524 93.789 122.545 93.9964 122.572 94.2015C122.589 94.3374 122.608 94.4757 122.61 94.5103V96.0588L122.68 96.1925C122.739 96.3482 122.764 96.5136 122.753 96.6787V97.0912C122.747 97.2619 122.76 97.4327 122.794 97.6005L122.849 97.9162C123.11 99.4233 123.315 100.384 123.592 100.82C124.513 102.304 125.484 103.691 127.252 104.355C127.42 104.414 127.595 104.453 127.773 104.472C127.831 104.483 127.891 104.49 127.951 104.491L128.1 104.615L128.296 104.641C128.889 104.721 129.793 104.811 130.14 104.811C131.657 104.811 132.732 104.482 133.39 102.868C133.455 102.721 133.499 102.566 133.521 102.408C133.527 102.359 133.537 102.312 133.55 102.265L133.73 102.113L133.798 98.4578L133.685 98.3518C133.648 97.978 133.632 97.6026 133.639 97.2272Z" fill="#F4F4F4"/>
<path d="M144.163 102.361L144.117 102.29C143.599 101.593 143.022 100.937 142.393 100.329C141.961 99.9093 141.558 99.4628 141.188 98.9921C140.879 98.5589 140.534 98.1533 140.199 97.7615C139.982 97.5034 139.763 97.2499 139.56 96.9895L139.237 96.5793C139.119 96.4192 138.992 96.2653 138.856 96.1185L138.692 95.9341C138.878 95.9203 139.064 95.9088 139.203 95.9041H140.168L140.337 95.7428L140.457 95.729C140.59 95.7208 140.721 95.6984 140.848 95.6622C142.109 95.3833 143.114 94.4109 143.835 92.7747C143.923 92.562 143.985 92.34 144.018 92.1133C144.031 91.9709 144.071 91.8319 144.137 91.7031L144.233 91.5487V90.6569C144.233 86.7509 141.504 84.2275 137.277 84.2275C136.112 84.2275 135.466 84.6746 135.348 85.5549V85.6309C135.353 85.8622 135.395 86.0913 135.471 86.3108C135.539 86.5078 135.575 86.7138 135.577 86.9214V88.4308C135.584 88.7291 135.607 89.0268 135.647 89.3227C135.689 89.6284 135.713 89.9361 135.719 90.2444C135.719 90.5002 135.719 90.7399 135.705 90.9657C135.691 91.1916 135.693 91.3759 135.693 91.5626V91.793L135.765 91.8829C135.841 92.4908 135.874 93.1028 135.864 93.7149V97.2476L135.98 97.4412L136.009 101.711L136.105 101.778C136.134 102.024 136.149 102.271 136.151 102.518L136.093 102.67V103.919C136.093 104.433 136.667 104.772 137.046 104.772H137.769V104.373L137.817 104.161C137.895 103.627 137.927 103.087 137.911 102.548C137.911 101.626 137.86 100.663 137.81 99.7295L137.769 98.9207C137.762 98.788 137.733 98.6572 137.682 98.5335V97.4182L137.846 97.6209L138.068 97.8929C138.389 98.4164 138.779 98.8988 139.228 99.3285C139.375 99.4806 139.517 99.6281 139.635 99.7595C140.358 100.605 140.964 101.333 141.923 102.336C141.969 102.384 142.121 102.596 142.244 102.764C143.307 104.235 143.727 104.693 144.259 104.693C144.478 104.682 144.684 104.594 144.838 104.447C144.993 104.299 145.085 104.102 145.096 103.894C145.096 103.371 144.71 102.972 144.402 102.642C144.315 102.555 144.235 102.461 144.163 102.361V102.361ZM142.495 90.4495V90.8874C142.495 93.0213 140.954 94.344 138.475 94.344C138.424 94.3427 138.372 94.3388 138.321 94.3325C138.241 94.3232 138.161 94.3179 138.08 94.3164H137.803L137.738 94.3809H137.675C137.668 94.2644 137.651 94.1486 137.622 94.0352V93.3093C137.622 92.7793 137.581 92.2147 137.549 91.8322C137.528 91.5833 137.508 91.3713 137.477 91.1939C137.477 90.4518 137.441 89.7121 137.405 88.9954C137.369 88.2787 137.335 87.569 137.335 86.8546V86.7601L137.304 86.6702C137.242 86.4438 137.202 86.2123 137.185 85.9789H137.39C139.247 85.9789 140.824 86.6702 141.839 87.94L141.858 87.9907C142.188 88.8318 142.495 89.643 142.495 90.4495Z" fill="#F4F4F4"/>
<path d="M153.858 88.3068C153.858 88.051 153.808 87.2675 153.716 86.5208C153.595 85.5299 153.475 84.5966 152.706 84.5966C152.454 84.6119 152.217 84.7162 152.042 84.8892C151.866 85.0621 151.764 85.2914 151.756 85.5322V85.6636L151.843 85.8572C151.861 86.3399 151.905 86.8214 151.975 87.2997C152.016 87.6062 152.055 87.9035 152.076 88.1939H152.043V90.0651L152.101 90.148C152.109 90.7637 152.078 91.3794 152.009 91.9916L151.927 92.0814V96.2548C151.731 96.7983 151.644 97.372 151.669 97.9462V98.7989C151.669 99.2321 151.613 103.014 149.661 103.053L149.632 103.041C149.489 102.979 149.338 102.938 149.183 102.919C148.277 102.829 147.843 102.564 147.438 101.838L147.423 101.735C147.402 101.536 147.347 101.343 147.262 101.161L146.883 99.7437L146.837 99.7114C146.836 99.6969 146.836 99.6822 146.837 99.6677C146.837 99.6101 146.82 99.557 146.813 99.5133C146.59 98.0488 146.478 96.5709 146.478 95.091C146.484 94.8266 146.506 94.5627 146.543 94.3006C146.589 93.989 146.615 93.675 146.62 93.3604C146.62 92.6852 146.584 91.9985 146.548 91.3371C146.512 90.6757 146.478 90.0213 146.478 89.3783C146.478 89.2816 146.478 89.1848 146.478 89.088C146.478 88.9912 146.495 88.8414 146.495 88.7193L146.35 88.0671V86.0553C146.333 85.8389 146.304 85.6235 146.263 85.4101V85.3133C146.263 84.297 145.489 84.2671 145.4 84.2671C145.214 84.2783 145.035 84.34 144.884 84.4449C144.734 84.5498 144.617 84.6935 144.549 84.8593L144.45 85.046L144.486 85.2534C144.552 85.7006 144.578 86.1524 144.564 86.6038V87.3389C144.564 87.468 144.564 87.6062 144.578 87.7468C144.592 87.8874 144.592 88.0049 144.592 88.1339V88.2722C144.589 88.4497 144.629 88.6256 144.708 88.7861L144.737 94.5472C144.69 94.7209 144.671 94.9003 144.679 95.0795C144.679 97.3217 144.908 101.389 146.435 103.433C147.073 104.311 148.916 104.749 149.769 104.749C152.383 104.749 152.853 102.235 153.145 100.732C153.199 100.368 153.28 100.008 153.386 99.6538L153.422 99.5524V99.4464C153.422 99.345 153.422 99.2344 153.407 99.1192C153.393 99.004 153.393 98.9049 153.393 98.7874C153.38 98.1867 153.45 97.5871 153.6 97.0037L153.624 96.9208V93.3996L153.709 93.2613V92.7566C153.709 92.4041 153.742 92.0515 153.779 91.6805C153.815 91.3095 153.853 90.8785 153.853 90.4499C153.85 90.2341 153.834 90.0187 153.805 89.8047C153.786 89.6249 153.767 89.4544 153.767 89.2954V89.1825C153.767 89.1318 153.786 88.9981 153.8 88.8575C153.844 88.5303 153.858 88.392 153.858 88.3068Z" fill="#F4F4F4"/>
<path d="M163.23 91.0878L163.182 90.9749C163.134 90.754 163.105 90.5297 163.097 90.3043C163.088 90.0723 163.061 89.8413 163.018 89.6129C162.895 89.1295 162.703 88.6643 162.449 88.2303C162.321 88.018 162.217 87.7932 162.14 87.5597V87.3661L162.027 87.2048C160.686 85.3175 158.757 84.2344 156.737 84.2344C155.968 84.2344 155.413 84.6953 155.413 85.3082V86.3637L155.459 86.4766V87.4237C155.47 87.5537 155.497 87.6821 155.539 87.8063C155.499 87.9879 155.472 88.1719 155.459 88.357V88.5068L155.563 88.7027C155.597 89.0897 155.61 89.4781 155.604 89.8664V91.8321C155.528 92.1587 155.498 92.4936 155.517 92.8276V92.9429C155.517 93.0028 155.517 93.1595 155.531 93.3162C155.546 93.4729 155.546 93.5789 155.546 93.6296V93.8923L155.637 93.9799C155.662 94.1642 155.666 94.5467 155.671 94.7887C155.658 95.1573 155.683 95.5263 155.746 95.8902V96.1022C155.746 96.5631 155.77 97.024 155.792 97.4849C155.813 97.9458 155.833 98.3629 155.833 98.8007C155.84 98.9199 155.83 99.0394 155.801 99.1556L155.678 99.4252L155.801 99.6557C155.797 99.8281 155.773 99.9995 155.731 100.167C155.707 100.258 155.693 100.35 155.69 100.444C155.692 100.585 155.731 100.724 155.804 100.847C155.804 101.126 155.828 101.386 155.85 101.638C155.871 101.889 155.891 102.098 155.891 102.329C155.891 102.398 155.891 102.467 155.891 102.52L155.674 102.73L155.874 103.115C155.874 103.115 155.874 103.115 155.874 103.126V103.511C155.857 103.737 155.907 103.963 156.018 104.163C156.129 104.363 156.297 104.53 156.503 104.642L156.807 104.804L157.12 104.654C157.12 104.654 157.718 104.331 157.718 103.841V102.728L157.612 102.626C157.62 102.608 157.626 102.59 157.631 102.571C157.684 102.432 157.714 102.285 157.718 102.138C157.718 101.631 157.672 101.135 157.629 100.656C157.586 100.176 157.545 99.734 157.545 99.2732C157.549 99.0882 157.564 98.9036 157.588 98.7201C157.613 98.5212 157.627 98.3212 157.631 98.1209C157.635 98.0542 157.635 97.9872 157.631 97.9205C157.673 97.9238 157.715 97.9238 157.757 97.9205H157.807C160.023 97.7591 162.186 96.2106 162.948 94.2333L163.225 93.2424L163.247 91.1846L163.23 91.0878ZM160.39 95.1044L160.284 95.1551C160.03 95.3006 159.802 95.4833 159.608 95.6967L159.546 95.7589C158.922 96.0915 158.22 96.2675 157.506 96.2705C157.506 96.1806 157.484 96.0976 157.482 96.0631C157.482 95.5745 157.441 95.0929 157.412 94.6159C157.373 94.0075 157.34 93.4337 157.34 92.8645V92.1732C157.405 92.0215 157.435 91.8578 157.426 91.6938V91.5556C157.426 91.4657 157.402 91.0947 157.378 90.749C157.359 90.4679 157.34 90.1983 157.34 90.1268V88.811C157.334 88.6706 157.314 88.531 157.282 88.3939C157.282 88.3017 157.282 88.1634 157.282 88.009C157.282 87.668 157.301 87.2371 157.301 86.9697C157.311 86.6423 157.284 86.3148 157.222 85.9927C157.837 86.0733 158.429 86.2741 158.96 86.5826L159.039 86.6356L159.112 86.6978C159.226 86.8021 159.35 86.8969 159.481 86.9813L160.226 87.6726C160.286 87.783 160.355 87.8893 160.431 87.9906C160.479 88.0515 160.522 88.1163 160.558 88.1842L160.59 88.2556C160.906 88.8394 161.144 89.4587 161.299 90.0992C161.299 90.1545 161.299 90.2397 161.299 90.3296C161.287 90.6834 161.331 91.0368 161.429 91.3781V92.8691C161.365 93.045 161.323 93.2276 161.303 93.413C161.288 93.534 161.264 93.6541 161.234 93.7725C161.185 93.8531 161.123 93.9568 161.053 94.0789C160.859 94.4362 160.637 94.779 160.39 95.1044Z" fill="#F4F4F4"/>
<path d="M118.885 35.6046C118.582 35.4387 115.377 33.6228 112.6 29.7237L120.178 27.7971C119.472 24.1742 118.328 20.6417 116.771 17.2705C115.355 14.1318 113.509 11.187 111.281 8.51359C108.508 5.23898 105.27 2.75249 101.656 1.08868L101.381 0.961936L101.092 0.865149C99.1919 0.283389 97.2081 -0.00825239 95.2134 0.000984083C91.6125 -0.036435 88.088 0.994101 85.1254 2.95067L84.0573 3.25025L84.337 2.95989L35.614 15.1734L34.5049 15.4039L27.9178 16.7174L27.8045 16.7451C26.9453 16.9311 26.1107 17.2086 25.3163 17.5723L24.3976 17.7429L23.8407 17.895L23.2427 17.9756C21.4923 18.2245 16.7593 19.2661 13.5382 23.3864C11.9768 25.4076 10.7339 27.6367 9.8492 30.0025C9.16687 31.823 8.40256 34.563 8.60991 37.2684C8.81726 39.9738 10.0349 42.2967 11.021 43.7669C12.106 45.3962 13.4658 46.8457 14.7533 47.7467L20.7593 51.95C21.1451 53.2843 21.8998 55.7477 22.8907 58.3517C23.6277 60.3675 24.514 62.3304 25.5429 64.2257C27.0402 66.8897 28.5905 68.5788 30.4229 69.5467L31.1462 69.9269L31.954 70.0859C34.5338 70.5952 47.6259 73.1416 52.1491 73.1416H52.952L53.7211 72.9112C56.0805 72.1985 58.3901 71.3433 60.6361 70.3509C64.4938 68.6549 67.5776 66.7837 69.8898 64.7696L85.5618 70.1021C87.4618 71.5861 91.6884 74.2777 97.3423 74.2777C100.959 74.2777 104.467 73.1785 107.746 71.0123L108.228 70.6897L108.631 70.2749C109.154 69.738 121.429 56.9253 121.759 40.2941L121.921 37.0495L118.885 35.6046ZM24.834 46.6544C23.4115 42.0939 24.0167 36.054 24.0167 36.054C23.2934 36.2383 21.7286 40.354 21.7286 40.354C20.8678 38.946 20.5423 33.5997 20.5423 33.5997C18.0565 37.5933 18.6448 43.5549 18.6448 43.5549C17.3597 42.6608 14.9486 39.8056 14.722 36.8882C14.4953 33.9707 16.1686 29.6084 18.5797 26.5182C20.9908 23.4279 24.9835 23.1076 24.9835 23.1076C23.25 25.6264 24.1011 29.189 24.1011 29.189C26.7822 22.5246 29.8226 21.7872 29.8226 21.7872L36.2963 20.4967C27.3753 32.1065 32.2264 48.5095 32.2264 48.5095C25.2656 47.484 24.834 46.6544 24.834 46.6544ZM52.8532 67.9382C48.6603 67.9382 33.755 64.9862 33.755 64.9862C30.0275 63.0205 26.4326 49.6294 26.4326 49.6294C26.4326 49.6294 28.1203 50.217 31.8503 51.0121C35.0353 51.6873 35.708 51.7034 35.708 51.7034C35.6381 53.7336 36.1709 58.3356 38.2396 60.4303C39.9635 62.1725 45.415 62.3246 45.415 62.3246C51.4957 60.1146 50.6326 53.7567 50.6326 53.7567C42.852 50.7471 33.2391 37.356 33.2391 37.356C32.846 28.6936 39.3849 19.7869 39.3849 19.7869L68.5589 12.4772C60.3854 21.0152 61.3667 30.2906 61.3667 30.2906C59.6669 31.8875 51.0352 30.2906 51.0352 30.2906C51.8839 25.4996 54.2395 22.8587 54.2395 22.8587C47.9707 21.6904 39.462 30.4749 46.0009 34.8418C52.5397 39.2087 61.4824 38.6372 61.4824 38.6372C62.5288 49.5718 68.5444 59.2781 68.5444 59.2781C64.1563 64.6843 52.8435 67.9382 52.8435 67.9382H52.8532ZM105.364 66.7422C96.443 72.6393 89.082 65.5439 89.082 65.5439L73.0941 60.1077C55.7344 29.5163 71.2304 12.4703 71.2304 12.4703L88.296 7.67708C93.528 3.62356 100.002 5.77361 100.002 5.77361C112.609 11.5485 115.491 28.6244 115.491 28.6244C111.305 17.9987 94.9578 19.9644 94.9578 19.9644C92.3442 15.4799 84.0139 14.3392 84.0139 14.3392C72.0477 26.3799 82.6468 52.0998 82.6468 52.0998C84.9591 58.3218 95.0036 59.1859 95.0036 59.1859C102.705 56.605 107.515 37.6532 107.515 37.6532C107.515 37.6532 102.529 53.706 90.3454 42.8313C82.1043 35.4755 91.6209 28.2719 92.8457 27.3916C94.0705 26.5113 103.635 24.2137 107.609 30.8482C111.582 37.4827 117.024 40.1996 117.024 40.1996C116.73 55.0402 105.364 66.7422 105.364 66.7422Z" fill="#F4F4F4"/>
<path d="M139.657 40.3766H128.255C127.42 40.3742 126.621 40.0563 126.031 39.4924C125.441 38.9286 125.108 38.1645 125.106 37.367C125.108 36.5696 125.441 35.8055 126.031 35.2416C126.621 34.6777 127.42 34.3599 128.255 34.3574H139.657C140.491 34.3599 141.29 34.6777 141.88 35.2416C142.47 35.8055 142.803 36.5696 142.806 37.367V37.367C142.803 38.1645 142.47 38.9286 141.88 39.4924C141.29 40.0563 140.491 40.3742 139.657 40.3766Z" fill="#F4F4F4"/>
<path d="M144.891 57.6598L130.57 55.201C129.749 55.0567 129.021 54.6083 128.545 53.9535C128.069 53.2986 127.883 52.4904 128.028 51.7051C128.179 50.9206 128.648 50.2247 129.333 49.7696C130.018 49.3146 130.864 49.1372 131.686 49.2762L146.008 51.7351C146.829 51.8788 147.557 52.327 148.033 52.9819C148.51 53.6368 148.696 54.4453 148.551 55.2309V55.2309C148.401 56.0159 147.932 56.7122 147.246 57.1673C146.56 57.6225 145.713 57.7995 144.891 57.6598V57.6598Z" fill="#F4F4F4"/>
<path d="M157.991 20.764L129.559 26.7555C128.744 26.9251 127.892 26.7793 127.189 26.3501C126.486 25.9209 125.989 25.2431 125.807 24.4649V24.4649C125.63 23.6855 125.782 22.8707 126.232 22.1984C126.681 21.5261 127.39 21.051 128.204 20.8769L156.636 14.8853C157.453 14.7161 158.307 14.8637 159.011 15.2957C159.715 15.7277 160.211 16.4089 160.39 17.1898C160.562 17.9674 160.407 18.7786 159.958 19.4477C159.509 20.1167 158.802 20.5897 157.991 20.764Z" fill="#F4F4F4"/>
<path d="M82.5529 11.1841C82.5529 11.1841 62.4107 27.3774 85.9525 60.8379C85.9525 60.8379 67.7947 36.3509 82.5529 11.1841Z" fill="#F4F4F4"/>
<path d="M170.945 88.1181C169.896 88.1181 168.871 87.8207 167.998 87.2636C167.126 86.7066 166.446 85.9148 166.045 84.9884C165.643 84.062 165.538 83.0427 165.743 82.0592C165.947 81.0758 166.453 80.1724 167.194 79.4634C167.936 78.7544 168.881 78.2716 169.91 78.0759C170.939 77.8803 172.006 77.9807 172.975 78.3644C173.944 78.7481 174.773 79.3979 175.356 80.2317C175.939 81.0654 176.25 82.0456 176.25 83.0483C176.25 84.3929 175.691 85.6824 174.696 86.6332C173.701 87.5839 172.352 88.1181 170.945 88.1181V88.1181ZM170.945 78.7574C170.055 78.7574 169.186 79.0096 168.446 79.4821C167.706 79.9546 167.129 80.6262 166.789 81.4119C166.448 82.1977 166.359 83.0623 166.533 83.8964C166.706 84.7305 167.135 85.4968 167.764 86.0981C168.393 86.6995 169.195 87.1091 170.068 87.275C170.94 87.4409 171.845 87.3557 172.667 87.0303C173.489 86.7048 174.192 86.1536 174.686 85.4465C175.18 84.7394 175.444 83.908 175.444 83.0575C175.443 81.9174 174.969 80.8244 174.125 80.0182C173.282 79.2121 172.138 78.7586 170.945 78.7574V78.7574Z" fill="#F4F4F4"/>
<path d="M169.115 85.6633V80.4507H170.945C171.495 80.4507 171.89 80.559 172.131 80.771C172.373 80.983 172.496 81.3333 172.496 81.8149C172.511 82.0938 172.443 82.3711 172.3 82.6146C172.238 82.71 172.155 82.7908 172.055 82.8507C171.956 82.9106 171.843 82.948 171.726 82.9602C172.209 83.0801 172.46 83.4687 172.481 84.1263V84.1954L172.51 84.8867C172.515 85.0429 172.541 85.1978 172.587 85.3476C172.628 85.463 172.695 85.5679 172.785 85.6541H171.579C171.549 85.5532 171.528 85.4499 171.517 85.3453C171.502 85.2255 171.493 85.0596 171.488 84.843L171.473 84.2968V84.1585C171.487 84.0471 171.476 83.9341 171.441 83.8269C171.406 83.7198 171.348 83.6208 171.271 83.5363C171.136 83.4234 170.863 83.3658 170.451 83.3658H170.104V85.6541L169.115 85.6633ZM170.097 82.6537H170.68C170.9 82.6764 171.121 82.6161 171.295 82.4855C171.428 82.3106 171.489 82.0947 171.466 81.8794C171.477 81.7812 171.466 81.6818 171.434 81.588C171.401 81.4942 171.348 81.4081 171.278 81.3356C171.076 81.2111 170.835 81.1558 170.596 81.1789H170.097V82.6537Z" fill="#F4F4F4"/>
</g>
<defs>
<clipPath id="clip0_2329_108">
<rect width="178" height="105.182" fill="white"/>
</clipPath>
</defs>
</svg>
